<?xml version="1.0" standalone="no"?>
<!DOCTYPE svg PUBLIC "-//W3C//DTD SVG 20010904//EN"
 "http://www.w3.org/TR/2001/REC-SVG-20010904/DTD/svg10.dtd">
<svg version="1.0" xmlns="http://www.w3.org/2000/svg"
 width="49.000000pt" height="34.000000pt" viewBox="0 0 49.000000 34.000000"
 preserveAspectRatio="xMidYMid meet">

<g transform="translate(0.000000,34.000000) scale(0.100000,-0.100000)"
fill="#ffffff" stroke="none">
<path d="M50 275 c0 -10 10 -15 30 -15 27 0 33 -7 70 -80 l40 -80 85 0 85 0
35 70 c33 65 34 70 15 70 -14 0 -27 -15 -45 -50 l-25 -50 -65 0 -65 0 -37 75
-37 75 -43 0 c-32 0 -43 -4 -43 -15z"/>
<path d="M184 65 c-4 -9 -2 -21 4 -27 15 -15 44 -1 40 19 -4 23 -36 29 -44 8z"/>
<path d="M314 65 c-4 -9 -2 -21 4 -27 15 -15 44 -1 40 19 -4 23 -36 29 -44 8z"/>
</g>
</svg>
